<svg width="20" height="20" viewBox="0 0 20 20" fill="none" xmlns="http://www.w3.org/2000/svg">
<path d="M9.99603 1.80159C12.6667 1.80159 12.9802 1.81349 14.0357 1.86111C15.0119 1.90476 15.5397 2.06746 15.8929 2.20635C16.3611 2.38889 16.6944 2.60317 17.0437 2.95238C17.3929 3.30158 17.6111 3.63492 17.7897 4.10317C17.9246 4.45634 18.0913 4.98412 18.1349 5.96031C18.1825 7.01587 18.1944 7.32936 18.1944 9.99999C18.1944 12.6706 18.1825 12.9841 18.1349 14.0397C18.0913 15.0159 17.9286 15.5436 17.7897 15.8968C17.6071 16.3651 17.3929 16.6984 17.0437 17.0476C16.6944 17.3968 16.3611 17.6151 15.8929 17.7936C15.5397 17.9286 15.0119 18.0952 14.0357 18.1389C12.9802 18.1865 12.6667 18.1984 9.99603 18.1984C7.3254 18.1984 7.01191 18.1865 5.95635 18.1389C4.98016 18.0952 4.45238 17.9325 4.09921 17.7936C3.63095 17.6111 3.29762 17.3968 2.94841 17.0476C2.59921 16.6984 2.38095 16.3651 2.20238 15.8968C2.06746 15.5436 1.90079 15.0159 1.85714 14.0397C1.80952 12.9841 1.79762 12.6706 1.79762 9.99999C1.79762 7.32936 1.80952 7.01587 1.85714 5.96031C1.90079 4.98412 2.06349 4.45634 2.20238 4.10317C2.38492 3.63492 2.59921 3.30158 2.94841 2.95238C3.29762 2.60317 3.63095 2.38492 4.09921 2.20635C4.45238 2.07143 4.98016 1.90476 5.95635 1.86111C7.01191 1.80952 7.32937 1.80159 9.99603 1.80159ZM9.99603 0C7.28175 0 6.94048 0.0119047 5.87302 0.0595237C4.80952 0.107143 4.08333 0.277777 3.44841 0.523809C2.78968 0.777777 2.23413 1.12301 1.67857 1.67857C1.12302 2.23412 0.781746 2.79365 0.52381 3.44841C0.277778 4.08333 0.107143 4.80952 0.0595238 5.87698C0.0119048 6.94047 0 7.28174 0 9.99602C0 12.7103 0.0119048 13.0516 0.0595238 14.119C0.107143 15.1825 0.277778 15.9087 0.52381 16.5476C0.777778 17.2063 1.12302 17.7619 1.67857 18.3174C2.23413 18.873 2.79365 19.2143 3.44841 19.4722C4.08333 19.7182 4.80952 19.8889 5.87698 19.9365C6.94445 19.9841 7.28175 19.996 10 19.996C12.7183 19.996 13.0556 19.9841 14.123 19.9365C15.1865 19.8889 15.9127 19.7182 16.5516 19.4722C17.2103 19.2182 17.7659 18.873 18.3214 18.3174C18.877 17.7619 19.2183 17.2024 19.4762 16.5476C19.7222 15.9127 19.8929 15.1865 19.9405 14.119C19.9881 13.0516 20 12.7143 20 9.99602C20 7.27777 19.9881 6.94047 19.9405 5.87301C19.8929 4.80952 19.7222 4.08333 19.4762 3.44444C19.2222 2.78571 18.877 2.23016 18.3214 1.6746C17.7659 1.11905 17.2064 0.777777 16.5516 0.519841C15.9167 0.273809 15.1905 0.103174 14.123 0.0555555C13.0516 0.0119047 12.7103 0 9.99603 0Z" fill="black"/>
<path d="M10.0153 4.86157C7.18196 4.86157 4.88037 7.15919 4.88037 9.99649C4.88037 12.8338 7.17799 15.1314 10.0153 15.1314C12.8526 15.1314 15.1502 12.8338 15.1502 9.99649C15.1502 7.15919 12.8526 4.86157 10.0153 4.86157ZM10.0153 13.3258C8.17402 13.3258 6.68196 11.8338 6.68196 9.99252C6.68196 8.15125 8.17402 6.65919 10.0153 6.65919C11.8566 6.65919 13.3486 8.15125 13.3486 9.99252C13.3486 11.8338 11.8566 13.3258 10.0153 13.3258Z" fill="black"/>
<path d="M15.3329 5.85264C15.9948 5.85264 16.5314 5.31609 16.5314 4.65422C16.5314 3.99236 15.9948 3.45581 15.3329 3.45581C14.6711 3.45581 14.1345 3.99236 14.1345 4.65422C14.1345 5.31609 14.6711 5.85264 15.3329 5.85264Z" fill="black"/>
</svg>
