<svg width="21" height="21" viewBox="0 0 21 21" fill="none" xmlns="http://www.w3.org/2000/svg">
<path d="M19.4047 0H2.35998C1.54514 0 0.882324 0.646359 0.882324 1.44516V18.7383C0.882324 19.5371 1.54514 20.1835 2.35998 20.1835H19.4047C20.2226 20.1835 20.8823 19.5371 20.8823 18.7383V1.44516C20.8823 0.646359 20.2226 0 19.4047 0ZM3.9258 16.8968V7.7807H6.948V16.8938H3.9258V16.8968ZM5.4369 6.53677H5.41562C4.40315 6.53677 3.74642 5.83553 3.74642 4.96355C3.74642 4.07023 4.42139 3.38729 5.45514 3.38729C6.48889 3.38729 7.12434 4.06719 7.14259 4.96355C7.14563 5.83858 6.48889 6.53677 5.4369 6.53677ZM17.8388 16.8968H14.8167V12.0217C14.8167 10.796 14.3788 9.96064 13.2873 9.96064C12.4512 9.96064 11.9556 10.5247 11.7367 11.0674C11.6576 11.2625 11.6364 11.5339 11.6364 11.8052V16.8938H8.61416C8.61416 16.8938 8.65368 8.63439 8.61416 7.7807H11.6364V9.07037C12.0377 8.4484 12.7552 7.56728 14.3575 7.56728C16.346 7.56728 17.8358 8.86915 17.8358 11.668V16.8968H17.8388Z" fill="black"/>
</svg>
