<svg width="127" height="19" viewBox="0 0 127 19" fill="none" xmlns="http://www.w3.org/2000/svg">
<path d="M14.84 6.24C14.84 2.88 12.44 1.2 9.08 1.2H1.16L0.92 1.44V17.76L1.16 18H4.04L4.28 17.76V11.52L4.52 11.28H6.92L7.4 11.52L12.2 17.76L12.68 18H14.12L14.36 17.76V15.36L11.24 11.28V11.04C13.16 10.56 14.84 8.88 14.84 6.24ZM11.48 6.24C11.48 7.92 10.52 8.4 9.08 8.4H4.52L4.28 8.16V4.32L4.52 4.08H9.08C10.52 4.08 11.48 4.56 11.48 6.24ZM27.8103 12C27.8103 8.64 25.8903 5.76 22.0503 5.76C18.2103 5.76 16.2903 8.64 16.2903 12C16.2903 15.36 18.2103 18.24 22.2903 18.24C25.8903 18.24 27.0903 16.08 27.3303 14.64L27.0903 14.4H24.2103L23.9703 14.64C23.7303 15.12 23.0103 15.36 22.2903 15.36C20.3703 15.36 19.8903 13.92 19.8903 13.44L20.1303 13.2H27.5703L27.8103 12.96V12ZM23.9703 10.8H20.1303L19.8903 10.56C19.8903 10.32 20.1303 8.64 22.0503 8.64C23.9703 8.64 24.2103 10.32 24.2103 10.56L23.9703 10.8ZM41.2513 17.76V10.56C41.2513 7.68 39.5713 5.76 36.6913 5.76C35.0113 5.76 34.0513 6.48 33.5713 6.96H33.3313L33.0913 6.24L32.8513 6H30.2113L29.9713 6.24V17.76L30.2113 18H33.0913L33.3313 17.76V11.76C33.3313 9.6 34.2913 8.64 35.9713 8.64C37.4113 8.64 37.8913 9.6 37.8913 10.8V17.76L38.1313 18H41.0113L41.2513 17.76ZM55.1731 17.76V10.56C55.1731 7.68 53.4931 5.76 50.6131 5.76C48.9331 5.76 47.9731 6.48 47.4931 6.96H47.2531L47.0131 6.24L46.7731 6H44.1331L43.8931 6.24V17.76L44.1331 18H47.0131L47.2531 17.76V11.76C47.2531 9.6 48.2131 8.64 49.8931 8.64C51.3331 8.64 51.8131 9.6 51.8131 10.8V17.76L52.0531 18H54.9331L55.1731 17.76ZM68.615 12C68.615 8.64 66.695 5.76 62.855 5.76C59.015 5.76 57.095 8.64 57.095 12C57.095 15.36 59.015 18.24 63.095 18.24C66.695 18.24 67.895 16.08 68.135 14.64L67.895 14.4H65.015L64.775 14.64C64.535 15.12 63.815 15.36 63.095 15.36C61.175 15.36 60.695 13.92 60.695 13.44L60.935 13.2H68.375L68.615 12.96V12ZM64.775 10.8H60.935L60.695 10.56C60.695 10.32 60.935 8.64 62.855 8.64C64.775 8.64 65.015 10.32 65.015 10.56L64.775 10.8ZM78.6959 8.64V6.24L78.4559 6H77.0159C74.8559 6 74.3759 6.96 74.3759 6.96H74.1359L73.8959 6.24L73.6559 6H71.0159L70.7759 6.24V17.76L71.0159 18H73.8959L74.1359 17.76V12C74.1359 9.84 74.8559 8.88 76.7759 8.88H78.4559L78.6959 8.64ZM94.7788 17.76V15.36L93.8188 14.4V14.16C95.0188 12.48 95.0188 10.8 95.0188 8.64L94.7788 8.4H92.1388L91.8988 8.64C91.8988 10.08 91.8988 10.8 91.4188 11.76H91.1788L88.5388 9.12V8.88C89.9788 7.92 90.9388 6.72 90.9388 4.8C90.9388 3.12 89.7388 0.959999 86.6188 0.959999C83.2588 0.959999 81.8188 2.88 81.8188 5.04C81.8188 6.48 82.5388 7.44 83.2588 8.16V8.4C81.8188 9.12 80.1388 10.32 80.1388 13.2C80.1388 15.84 82.0588 18.24 86.1388 18.24C88.5388 18.24 90.2188 17.52 91.4188 16.56H91.6588L92.8588 17.76L93.3388 18H94.5388L94.7788 17.76ZM87.8188 5.04C87.8188 6 87.0988 6.48 86.3788 6.96H86.1388C85.4188 6.24 84.9388 5.76 84.9388 5.04C84.9388 4.32 85.4188 3.84 86.3788 3.84C87.0988 3.84 87.8188 4.08 87.8188 5.04ZM89.2588 14.4C88.7788 14.88 87.8188 15.36 86.1388 15.36C84.4588 15.36 83.4988 14.4 83.4988 13.2C83.4988 12 83.9788 11.28 85.4188 10.56H85.6588L89.2588 14.16V14.4ZM105.573 15.36C102.213 15.36 100.773 12.96 100.773 9.6C100.773 6.24 102.213 3.84 105.573 3.84C107.493 3.84 108.693 4.56 109.173 6L109.413 6.24H112.293L112.533 6C112.053 2.88 109.413 0.959999 105.573 0.959999C100.293 0.959999 97.4131 4.56 97.4131 9.6C97.4131 14.64 100.293 18.24 105.573 18.24C109.413 18.24 112.053 16.32 112.533 12.96L112.293 12.72H109.413L109.173 12.96C108.693 14.64 107.493 15.36 105.573 15.36ZM126.212 12C126.212 8.16 123.812 5.76 120.212 5.76C116.612 5.76 114.212 8.16 114.212 12C114.212 15.84 116.612 18.24 120.212 18.24C123.812 18.24 126.212 15.84 126.212 12ZM122.852 12C122.852 14.16 121.892 15.36 120.212 15.36C118.532 15.36 117.572 14.16 117.572 12C117.572 9.84 118.532 8.64 120.212 8.64C121.892 8.64 122.852 9.84 122.852 12Z" fill="black"/>
</svg>
